<?xml version="1.0" encoding="UTF-8"?>
<svg id="Layer_1" data-name="Layer 1" xmlns="http://www.w3.org/2000/svg" viewBox="0 0 311.64 146.53">
  <path d="M305.63.4c.3.3,0,1.8-.7,3.1-1.3,2.6-1,6.4.6,6.4,1.2,0,3.9-4.2,3.9-6.2,0-1,.4-1.7.9-1.6.5.2,1.1-.2,1.3-.7.1-.6-1.3-1.1-3.2-1.3S305.23,0,305.63.4Z"/>
  <path d="M299.03,11.9c.7,3.5-.9,6-3.8,6-1.4,0-1.8-.5-1.4-1.5.8-2.1-.4-1.9-3.9.9-2.5,2-2.7,2.6-1.7,3.9.7.8.9,1.8.4,2.1s-3,4.1-5.5,8.4c-3.7,6.5-5.8,8.8-11.2,12.7l-6.7,4.7-7.9-1.7c-4.3-.9-9.6-1.5-11.7-1.4-2.1.2-5.4-.5-7.4-1.4-1.9-.9-8-2.1-13.4-2.7s-10.6-1.3-11.4-1.7c-.8-.3-3-.7-4.8-.9-5.5-.5-7.2-1.4-7.8-4-.8-3.1-3.2-3.1-4.4.2-1.5,3.7-1.3,4.4,1.3,4.4,1.3,0,3.4,1.1,4.7,2.5,1.2,1.3,2.8,2.1,3.4,1.7,2.2-1.4,5.6-.8,5.6.9,0,1,.5,1.9,1.2,2.1.8.3.4,1.5-1.1,3.7-2.9,4-1.6,5.4,4.3,4.4,2.7-.4,3.7-.3,3.2.5-1.1,1.8,3.3,2.4,12.8,1.7,7-.5,10.1-.3,13.1.8,2.2.8,6.6,2.1,9.8,2.8,6.2,1.3,10.7,4.1,10.7,6.5,0,1.8-5.7,13.3-7.7,15.5-.8.9-5.7,3.8-10.9,6.5-5.3,2.6-10,5.6-10.5,6.5-.6,1.2-.2,3,1.6,6.1,1.4,2.3,3,6.1,3.6,8.2,1.5,5.5,4,9.1,5.1,7.4.6-1,1.5-.6,3.5,1.7,2.2,2.5,2.5,2.6,1.9.7-.5-1.3-.3-2.2.3-2.2,2.2,0,1-1.6-2.6-3.5-2.1-1-4-2.1-4.3-2.2-.2-.2-.5-3.5-.7-7.2l-.3-6.9,5.1-2.2c2.8-1.2,5.7-1.9,6.4-1.6.8.3,2.7,0,4.4-.7,2.6-.9,3.4-.9,4.7.5,1.6,1.6,1.1,4.3-.6,3.3-1.5-.9-4.8,1.3-5.5,3.5-.9,2.9,1.2,5,4.9,5,4.1,0,6.4-1.7,7.4-5.4.8-3,3.2-4.8,3.2-2.5,0,.7.9,3.1,1.9,5.3,2.3,4.9,3.2,8.6,3.6,14.6.2,2.5,1.5,6.6,2.9,9,2.5,4.4,3.9,9.5,1.6,6-.8-1.3-1-1.3-1-.1,0,.8-.9,2.4-2,3.6-1.9,2-1.9,2.2-.3,2,1,0,2.3-.4,2.9-.8.6-.3,2.7-.2,4.8.4,2,.5,4.1.7,4.6.4,1.6-1-.7-4.3-4-6-2.8-1.4-3-1.9-2.4-5.5.4-2.7.1-5.5-.9-8.3-.9-2.3-1.9-8.7-2.3-14.2-.7-11.3-.7-10.1.2-21.2.5-6.1.2-9.9-1.1-15.2l-1.7-7,4.5-5.9c4.9-6.5,7.2-12.1,6.2-15.2-.5-1.5.3-2.9,2.9-5.4,4.2-3.9,6.3-9.9,6.1-16.8-.1-3.1.3-4.9,1.2-5.2,2.3-.9,1.5-3.6-1.2-3.6-2.2,0-2.4.3-1.9,3ZM294.63,27.1c-.7.7-1.2.8-1.2.2s.3-1.4.7-1.7c.3-.4.9-.5,1.2-.2.2.3-.1,1.1-.7,1.7Z"/>
  <path d="M196.43,29.8c0,.5.5,1.3,1,1.6.6.3,1,.2,1-.4,0-.5-.4-1.3-1-1.6-.5-.3-1-.2-1,.4Z"/>
  <path d="M193.63,33.9c-.6,1.1-.8,2.1-.3,2.5.5.3,1.3-.4,1.6-1.6.9-2.8.2-3.3-1.3-.9Z"/>
  <path d="M101.99,16.43c-.73.97-1.15,2.19-.97,2.92.36,1.64,1.46,20.47,1.88,33.71.18,5.83.49,15.12.67,20.65.3,9.35,1.88,26.85,3.22,35.84,1.88,12.39,2.67,17.55,3.71,25.21,1.15,7.96,1.34,8.63,3.04,10.14,2.19,2,3.83,2.13,6.44.55s2.85-3.28,1.4-9.54c-.67-2.98-1.52-6.92-1.76-8.75-.3-1.82-.97-5.83-1.52-8.81-1.15-6.26-1.58-9.42-3.34-25.82-1.4-13.48-2.13-26.61-3.04-54.06-.36-10.51-.73-19.74-.91-20.47-.49-2.19-2-3.22-4.86-3.22-2.13,0-2.92.3-3.95,1.64Z"/>
  <path d="M174.64,25.06c-.91,1.03-1.03,3.28-1.28,20.47-.24,20.17-1.34,35.9-3.46,49.44-.67,4.19-1.28,8.81-1.34,10.33-.12,1.52-.55,6.74-.97,11.66s-.55,9.9-.36,11.06c.43,2.31,3.34,5.22,5.22,5.22,3.58,0,21.87-16.1,21.87-19.26,0-.85-.79-3.22-1.82-5.35-1.52-3.16-2.43-4.19-5.53-6.32-2.07-1.34-4.19-2.49-4.74-2.49-2.55-.06-2.61-.55-1.34-11.3,2.31-19.98,2.67-25.03,2.85-43.01l.12-18.16-1.7-1.76c-2.13-2.07-5.89-2.37-7.53-.55ZM182.05,111.07l2.25,2.13-3.28,3.16c-2.19,2.13-3.4,2.92-3.58,2.37-.43-1.21,1.15-9.78,1.82-9.78.24,0,1.52.97,2.79,2.13Z"/>
  <path d="M33.23,35.69c-1.88.79-4.68,2.13-6.13,3.04-3.22,1.88-9.78,8.93-13.67,14.76C4.74,66.48-.66,87.01.07,104.81c.18,5.53.43,6.62,2,9.54,3.1,5.59,10.33,10.81,16.46,11.84,3.46.61,11.91-.67,15.67-2.31,7.35-3.28,15.12-10.02,18.04-15.73l1.15-2.25,3.22,1.58c1.7.91,4.07,2.43,5.16,3.34,2.49,2.19,5.47,2.37,7.71.36,1.4-1.15,1.64-1.94,1.7-4.68l.12-3.28-2.43-.79c-1.88-.61-8.56-3.71-10.57-4.86-.12-.12.18-1.21.73-2.43,3.04-6.99,3.77-18.59,1.46-23.02-.85-1.58-.91-2.73-.49-6.68,1.09-9.66-1.15-20.11-5.41-25.27-1.03-1.21-3.52-3.04-5.59-4.07-4.86-2.43-10.51-2.61-15.79-.43ZM44.89,43.22c3.46,1.7,5.59,5.71,6.5,12.27l.36,2.73-3.71-3.52c-4.43-4.19-6.8-5.28-11.42-5.28-3.04,0-3.58.18-5.16,1.88-.97,1.03-2.07,3.04-2.43,4.37-.79,3.04-.36,9.23,1.03,13.48.55,1.64,1.03,3.71,1.09,4.49.12,2,2.85,3.95,4.86,3.46,2.13-.55,2.98-2.73,2.19-6.01-.3-1.4-.61-4.8-.61-7.59,0-6.44.61-6.44,6.5-.3,6.5,6.8,6.44,6.68,4.74,13.91-1.4,5.95-2.92,10.57-4.62,13.73q-.85,1.58-3.28.67c-1.34-.49-2.85-1.03-3.34-1.15-.55-.18-1.88.3-3.04,1.09-2.67,1.76-3.22,4.92-1.21,6.99.67.73,1.21,2.07,1.21,2.92,0,.97.73,2.37,1.82,3.46,1.64,1.58,2.13,1.76,4.01,1.4,1.15-.18,2.55-.55,3.04-.73,1.82-.67.67,1.09-2.61,4.01-6.74,6.01-15.06,8.93-21.62,7.71-3.04-.55-7.59-3.83-8.87-6.38-2.49-4.98-1.88-17.92,1.52-31.34,2.85-11.06,12.09-27.33,18.4-32.38,2.92-2.31,8.75-4.92,10.99-4.92.85,0,2.49.49,3.64,1.03Z"/>
  <path d="M156.78,48.93c-1.52.79-4.68,5.28-7.11,10.27l-1.7,3.46-1.88-1.15c-2.61-1.58-4.13-1.46-7.96.73-4.13,2.31-4.49,3.52-2.85,8.93.73,2.25,1.46,6.68,1.7,9.78.36,5.22.55,5.95,2.07,7.47,2.07,2.07,5.16,2.25,7.41.49,2.19-1.7,2.49-4.13,1.09-8.26-1.64-4.74-1.52-5.47.55-3.16,1.7,1.94,1.76,1.94,3.4.85,1.76-1.15,3.34-4.31,3.34-6.68,0-.85.3-1.7.61-1.88.36-.24.61,2.79.61,8.63.06,13.61,1.64,20.71,4.86,21.75,3.77,1.21,6.44-2.19,5.77-7.17-.18-1.76-.3-6.99-.24-11.66.43-22.05-.85-30.67-4.68-32.44-1.82-.79-3.16-.79-4.98.06Z"/>
  <path d="M90.21,52.81c-1.09,1.09-1.58,2.25-1.58,3.64,0,1.7.43,2.37,2.55,3.89,3.22,2.31,4.37,2.31,6.92-.24,4.01-4.01,2.07-8.87-3.52-8.87-2.19,0-3.1.36-4.37,1.58Z"/>
  <path d="M82.43,63.44c-2,1.15-2.55,3.28-2.92,11.18-.43,7.96-1.09,10.63-2.79,10.63-1.28,0-1.46-.73-1.64-9.23-.24-9.17-.73-10.2-5.1-10.2-2.07,0-3.04.36-4.25,1.58-1.34,1.34-1.52,1.88-1.09,4.07.18,1.4.61,5.28.85,8.63.73,9.05,2.85,14.03,6.68,15.79,4.68,2.07,10.75,0,13.12-4.49.49-.97,1.46-5.41,2.19-9.84.73-4.49,1.64-8.75,2.13-9.48.43-.73.97-2.37,1.21-3.64.55-3.4-1.4-5.65-4.8-5.65-1.4,0-3.04.3-3.58.67Z"/>
  <path d="M192.98,71.28c-4.8.91-6.26,3.58-6.86,12.51-.36,5.47-.24,7.11.49,8.5,3.4,6.56,11.24,7.11,16.76,1.15,3.16-3.4,4.25-6.2,4.74-11.66.3-4.07.24-4.62-1.21-6.8-1.03-1.52-2.31-2.61-3.58-2.98-2.98-.91-7.78-1.28-10.33-.73ZM198.88,79.91c1.34.61,1.52.91,1.15,2.85-.43,2.31-2.37,4.92-3.64,4.92-.43,0-1.52-.61-2.43-1.4-1.64-1.4-1.64-1.46-.61-3.58.85-1.7,2.13-2.92,3.83-3.46.06-.06.85.24,1.7.67Z"/>
  <path d="M121,72.8c-2.61,1.09-4.31,4.49-3.4,6.56.43.85.49,1.76.12,2.31-.3.49-.55,2.25-.55,3.95,0,2.55.36,3.58,2.13,6.01,1.15,1.64,2.73,3.34,3.46,3.77,3.71,2.07,9.11-.24,11.12-4.74.97-2.13,1.03-2.98.49-6.62-.73-4.56-2.98-9.17-5.22-10.57-2.13-1.34-5.95-1.7-8.14-.67ZM127.56,82.58c1.15,3.1-.55,4.98-3.4,3.89-1.76-.67-2-2.67-.49-4.37,1.4-1.58,3.16-1.4,3.89.49Z"/>
  <path d="M93.12,73.83c-2.49,1.21-2.79,2.92-2.07,14.09.36,5.71.79,10.99.97,11.72.43,2.25,2.37,2.85,6.01,2.07,2.85-.67,3.22-.91,3.58-2.55.18-1.03.06-3.1-.3-4.68s-.61-5.89-.61-9.54-.24-7.53-.61-8.56c-.85-2.79-4.07-4.01-6.99-2.55Z"/>
</svg>